<svg width="339px" height="342px" viewBox="0 0 339 342" version="1.1" xmlns="http://www.w3.org/2000/svg" xmlns:xlink="http://www.w3.org/1999/xlink">
	<g id="Desktop" stroke="none" stroke-width="1" fill="none" fill-rule="evenodd">
		<g id="Group-15">
			<path d="M165.049951,0 C271.190101,0 339,65.8368013 339,134.995749 C339,183.198773 311.521004,227.293116 247.294462,228.451467 L247.294462,295 C247.294462,295 246.321082,284.980758 229.751635,269.901294 C201.388349,244.091957 163.349562,244.820189 88.3300565,203.913786 C22.7902764,168.177611 0,130.847466 0,93.1279039 C0,55.4083417 44.9041367,0 165.049951,0 Z" id="Fill-1" fill="#004FA6"></path>
			<g id="Group-3" opacity="0.295247396" transform="translate(150.000000, 267.000000) scale(-1, 1) translate(-150.000000, -267.000000) translate(64.000000, 192.000000)" fill="#3183C7">
				<path d="M0,47.3531715 C0,28.1737331 22.7832198,0 83.7421582,0 C137.594978,0 172,33.4763396 172,68.6419063 C172,93.1519186 158.057855,115.572771 125.470936,116.161763 L125.470936,150 C125.470936,150 124.977068,144.90547 116.570151,137.237946 C102.179339,124.114554 82.8794238,124.484842 44.8164298,103.684976 C11.5632081,85.5140396 0,66.5326099 0,47.3531715" id="Fill-1"></path>
			</g>
		</g>
	</g>
</svg>