
<svg width="180px" height="54px" viewBox="0 0 180 54" version="1.1" xmlns="http://www.w3.org/2000/svg" xmlns:xlink="http://www.w3.org/1999/xlink">
    <g id="Desktop" stroke="none" stroke-width="1" fill="none" fill-rule="evenodd">
        <g id="Group-13" transform="translate(0.000000, 0.926258)" fill="#FFFFFF">
            <path d="M6.82175342,3.13716704 C6.46908772,2.82872791 5.94603296,2.67438387 5.25258916,2.67438387 L3.37682367,2.67438387 L3.37682367,6.18869803 L5.25258916,6.18869803 C5.94603296,6.18869803 6.46908772,6.03709236 6.82175342,5.73437889 C7.17392381,5.43166542 7.35050432,5 7.35050432,4.43988051 C7.35050432,3.88000996 7.17392381,3.44560617 6.82175342,3.13716704 L6.82175342,3.13716704 Z M5.21841228,8.81130197 L3.37682367,8.81130197 L3.37682367,12 L0,12 L0,0 L5.45740274,0 C6.53744146,0 7.47532421,0.179985063 8.27129863,0.53995519 C9.06677774,0.900174259 9.68097082,1.41423948 10.1131349,2.08289768 C10.5450513,2.75155589 10.7612572,3.53721683 10.7612572,4.43988051 C10.7612572,5.30868808 10.5591679,6.06596963 10.1557322,6.71122728 C9.75204881,7.35723176 9.17525216,7.86283296 8.4248469,8.22852875 L11,12 L7.38443354,12 L5.21841228,8.81130197 Z" id="Fill-1"></path>
            <polygon id="Fill-3" points="22 9.37709271 22 12 13 12 13 0 21.7916279 0 21.7916279 2.62290729 16.1388372 2.62290729 16.1388372 4.64560297 21.1193023 4.64560297 21.1193023 7.18287244 16.1388372 7.18287244 16.1388372 9.37709271"></polygon>
            <path d="M26.1487722,11.6538669 C25.2668923,11.4231114 24.5508749,11.1157567 24,10.7310846 L25.0741461,8.32442999 C25.5921365,8.66505755 26.1926982,8.93985757 26.8758311,9.14835132 C27.5592041,9.35732381 28.2312955,9.46169037 28.8925854,9.46169037 C30.1486762,9.46169037 30.7768417,9.14835132 30.7768417,8.52215196 C30.7768417,8.19229618 30.5975373,7.94813588 30.2396486,7.78871357 C29.8815199,7.62953063 29.3056816,7.46173027 28.5123737,7.28579123 C27.6417753,7.09908041 26.9142363,6.89848597 26.3304769,6.6840079 C25.7462375,6.47000858 25.2450493,6.12650855 24.8264324,5.65398656 C24.4073354,5.18170394 24.198267,4.54425405 24.198267,3.74187628 C24.198267,3.03883824 24.3910132,2.40402146 24.7767456,1.83790469 C25.1624781,1.27226666 25.7380764,0.824400072 26.5040205,0.494544294 C27.2699647,0.164927889 28.2092125,0 29.3222438,0 C30.0826672,0 30.8318091,0.0852167322 31.5701495,0.255650196 C32.3082499,0.426083661 32.9587384,0.675988909 33.5206548,1.00560531 L32.5125177,3.42877661 C31.4102878,2.83513195 30.3414224,2.538549 29.3056816,2.538549 C28.6554331,2.538549 28.1818487,2.63477688 27.8842083,2.82699328 C27.5865678,3.01944904 27.4379876,3.26959366 27.4379876,3.5769484 C27.4379876,3.88478187 27.6139315,4.11553729 27.9667795,4.26921466 C28.3193874,4.42337077 28.8868246,4.58255371 29.669331,4.74724223 C30.5509709,4.93443179 31.2809102,5.13478686 31.8593889,5.34902555 C32.4378675,5.56326425 32.9392957,5.9038918 33.3636735,6.37114759 C33.7875711,6.83816401 34,7.47274142 34,8.27487981 C34,8.96714608 33.8070138,9.59358481 33.4215213,10.1539566 C33.0355488,10.7143285 32.4570702,11.162195 31.6858453,11.4975564 C30.9143804,11.832439 29.977773,12 28.8760231,12 C27.9391757,12 27.0301721,11.8848617 26.1487722,11.6538669" id="Fill-5"></path>
            <path d="M41.9730968,5.73424891 C42.3330802,5.43152916 42.5135782,5.00010373 42.5135782,4.43997262 C42.5135782,3.88009045 42.3330802,3.44567765 41.9730968,3.13698318 C41.612607,2.82853764 41.0779481,2.6741904 40.3691199,2.6741904 L38.4517399,2.6741904 L38.4517399,6.18857747 L40.3691199,6.18857747 C41.0779481,6.18857747 41.612607,6.0372176 41.9730968,5.73424891 M43.4548007,0.539966392 C44.2679278,0.899943987 44.895747,1.41401987 45.3374988,2.08269195 C45.7789975,2.75161297 46,3.53729021 46,4.43997262 C46,5.34290397 45.7789975,6.12584279 45.3374988,6.78854013 C44.895747,7.45148642 44.2679278,7.96282389 43.4548007,8.32280149 C42.6411673,8.68277908 41.6824772,8.86276788 40.5784774,8.86276788 L38.4517399,8.86276788 L38.4517399,12 L35,12 L35,0 L40.5784774,0 C41.6824772,0 42.6411673,0.17973985 43.4548007,0.539966392" id="Fill-7"></path>
            <path d="M48.4459501,10.5712368 C47.4819024,9.61913479 47,8.26871682 47,6.52095918 L47,0 L50.3101964,0 L50.3101964,6.4199158 C50.3101964,8.30239795 51.0511366,9.24376106 52.5335025,9.24376106 C54.0044582,9.24376106 54.7403002,8.30239795 54.7403002,6.4199158 L54.7403002,0 L58,0 L58,6.52095918 C58,8.26871682 57.5178548,9.61913479 56.5540499,10.5712368 C55.5900022,11.523827 54.2387332,12 52.5,12 C50.7615096,12 49.4099978,11.523827 48.4459501,10.5712368" id="Fill-9"></path>
            <polygon id="Fill-11" points="70 9.37709271 70 12 61 12 61 0 69.7916279 0 69.7916279 2.62290729 64.1388372 2.62290729 64.1388372 4.64560297 69.1193023 4.64560297 69.1193023 7.18287244 64.1388372 7.18287244 64.1388372 9.37709271"></polygon>
            <path d="M73.1487722,11.6538669 C72.2668923,11.4231114 71.5508749,11.1157567 71,10.7310846 L72.0741461,8.32442999 C72.5921365,8.66505755 73.1926982,8.93985757 73.8758311,9.14835132 C74.5592041,9.35732381 75.2312955,9.46169037 75.8925854,9.46169037 C77.1486762,9.46169037 77.7768417,9.14835132 77.7768417,8.52215196 C77.7768417,8.19229618 77.5975373,7.94813588 77.2396486,7.78871357 C76.8815199,7.62953063 76.3056816,7.46173027 75.5123737,7.28579123 C74.6417753,7.09908041 73.9142363,6.89848597 73.3304769,6.6840079 C72.7462375,6.47000858 72.2450493,6.12650855 71.8264324,5.65398656 C71.4073354,5.18170394 71.198267,4.54425405 71.198267,3.74187628 C71.198267,3.03883824 71.3910132,2.40402146 71.7767456,1.83790469 C72.1624781,1.27226666 72.7380764,0.824400072 73.5040205,0.494544294 C74.2699647,0.164927889 75.2092125,0 76.3222438,0 C77.0826672,0 77.8318091,0.0852167322 78.5701495,0.255650196 C79.3082499,0.426083661 79.9587384,0.675988909 80.5206548,1.00560531 L79.5125177,3.42877661 C78.4102878,2.83513195 77.3414224,2.538549 76.3056816,2.538549 C75.6554331,2.538549 75.1818487,2.63477688 74.8842083,2.82699328 C74.5865678,3.01944904 74.4379876,3.26959366 74.4379876,3.5769484 C74.4379876,3.88478187 74.6139315,4.11553729 74.9667795,4.26921466 C75.3193874,4.42337077 75.8868246,4.58255371 76.669331,4.74724223 C77.5509709,4.93443179 78.2809102,5.13478686 78.8593889,5.34902555 C79.4378675,5.56326425 79.9392957,5.9038918 80.3636735,6.37114759 C80.7875711,6.83816401 81,7.47274142 81,8.27487981 C81,8.96714608 80.8070138,9.59358481 80.4215213,10.1539566 C80.0355488,10.7143285 79.4570702,11.162195 78.6858453,11.4975564 C77.9143804,11.832439 76.977773,12 75.8760231,12 C74.9391757,12 74.0301721,11.8848617 73.1487722,11.6538669" id="Fill-13"></path>
            <polygon id="Fill-15" points="84.7720546 2.69156087 81 2.69156087 81 0 92 0 92 2.69156087 88.2455242 2.69156087 88.2455242 12 84.7720546 12"></polygon>
            <path d="M99.5134426,7.16569508 L97.9656575,3.32568512 L96.4176226,7.16569508 L99.5134426,7.16569508 Z M100.510999,9.66860984 L95.4200667,9.66860984 L94.4742119,12 L91,12 L96.3144702,0 L99.6682961,0 L105,12 L101.456853,12 L100.510999,9.66860984 Z" id="Fill-17"></path>
            <path d="M108.148772,11.6538669 C107.266892,11.4231114 106.550875,11.1157567 106,10.7310846 L107.074146,8.32442999 C107.592137,8.66505755 108.192698,8.93985757 108.875831,9.14835132 C109.559204,9.35732381 110.231295,9.46169037 110.892585,9.46169037 C112.148676,9.46169037 112.776842,9.14835132 112.776842,8.52215196 C112.776842,8.19229618 112.597537,7.94813588 112.239649,7.78871357 C111.88152,7.62953063 111.305682,7.46173027 110.512374,7.28579123 C109.641775,7.09908041 108.914236,6.89848597 108.330477,6.6840079 C107.746237,6.47000858 107.245049,6.12650855 106.826432,5.65398656 C106.407335,5.18170394 106.198267,4.54425405 106.198267,3.74187628 C106.198267,3.03883824 106.391013,2.40402146 106.776746,1.83790469 C107.162478,1.27226666 107.738076,0.824400072 108.504021,0.494544294 C109.269965,0.164927889 110.209212,0 111.322244,0 C112.082667,0 112.831809,0.0852167322 113.57015,0.255650196 C114.30825,0.426083661 114.958738,0.675988909 115.520655,1.00560531 L114.512518,3.42877661 C113.410288,2.83513195 112.341422,2.538549 111.305682,2.538549 C110.655433,2.538549 110.181849,2.63477688 109.884208,2.82699328 C109.586568,3.01944904 109.437988,3.26959366 109.437988,3.5769484 C109.437988,3.88478187 109.613931,4.11553729 109.966779,4.26921466 C110.319387,4.42337077 110.886825,4.58255371 111.669331,4.74724223 C112.550971,4.93443179 113.28091,5.13478686 113.859389,5.34902555 C114.437868,5.56326425 114.939296,5.9038918 115.363673,6.37114759 C115.787571,6.83816401 116,7.47274142 116,8.27487981 C116,8.96714608 115.807014,9.59358481 115.421521,10.1539566 C115.035549,10.7143285 114.45707,11.162195 113.685845,11.4975564 C112.91438,11.832439 111.977773,12 110.876023,12 C109.939176,12 109.030172,11.8848617 108.148772,11.6538669" id="Fill-19"></path>
            <path d="M6.97309675,26.7342489 C7.33308018,26.4315292 7.5135782,26.0001037 7.5135782,25.4399726 C7.5135782,24.8800905 7.33308018,24.4456777 6.97309675,24.1369832 C6.61260701,23.8285376 6.07794808,23.6741904 5.36911995,23.6741904 L3.45173985,23.6741904 L3.45173985,27.1885775 L5.36911995,27.1885775 C6.07794808,27.1885775 6.61260701,27.0372176 6.97309675,26.7342489 M8.4548007,21.5399664 C9.26792783,21.899944 9.89574703,22.4140199 10.3374988,23.0826919 C10.7789975,23.751613 11,24.5372902 11,25.4399726 C11,26.342904 10.7789975,27.1258428 10.3374988,27.7885401 C9.89574703,28.4514864 9.26792783,28.9628239 8.4548007,29.3228015 C7.64116727,29.6827791 6.68247722,29.8627679 5.5784774,29.8627679 L3.45173985,29.8627679 L3.45173985,33 L0,33 L0,21 L5.5784774,21 C6.68247722,21 7.64116727,21.1797399 8.4548007,21.5399664" id="Fill-21"></path>
            <path d="M18.5134426,28.1656951 L16.9656575,24.3256851 L15.4176226,28.1656951 L18.5134426,28.1656951 Z M19.5109985,30.6686098 L14.4200667,30.6686098 L13.4742119,33 L10,33 L15.3144702,21 L18.6682961,21 L24,33 L20.4568533,33 L19.5109985,30.6686098 Z" id="Fill-23"></path>
            <path d="M31.8217534,24.137167 C31.4690877,23.8287279 30.946033,23.6743839 30.2525892,23.6743839 L28.3768237,23.6743839 L28.3768237,27.188698 L30.2525892,27.188698 C30.946033,27.188698 31.4690877,27.0370924 31.8217534,26.7343789 C32.1739238,26.4316654 32.3505043,26 32.3505043,25.4398805 C32.3505043,24.88001 32.1739238,24.4456062 31.8217534,24.137167 L31.8217534,24.137167 Z M30.2184123,29.811302 L28.3768237,29.811302 L28.3768237,33 L25,33 L25,21 L30.4574027,21 C31.5374415,21 32.4753242,21.1799851 33.2712986,21.5399552 C34.0667777,21.9001743 34.6809708,22.4142395 35.1131349,23.0828977 C35.5450513,23.7515559 35.7612572,24.5372168 35.7612572,25.4398805 C35.7612572,26.3086881 35.5591679,27.0659696 35.1557322,27.7112273 C34.7520488,28.3572318 34.1752522,28.862833 33.4248469,29.2285288 L36,33 L32.3844335,33 L30.2184123,29.811302 Z" id="Fill-25"></path>
            <path d="M44.5134426,28.1656951 L42.9656575,24.3256851 L41.4176226,28.1656951 L44.5134426,28.1656951 Z M45.5109985,30.6686098 L40.4200667,30.6686098 L39.4742119,33 L36,33 L41.3144702,21 L44.6682961,21 L50,33 L46.4568533,33 L45.5109985,30.6686098 Z" id="Fill-27"></path>
            <polygon id="Fill-29" points="56 21 59.3496656 21 59.3496656 30.3086322 65 30.3086322 65 33 56 33"></polygon>
            <path d="M73.5134426,28.1656951 L71.9656575,24.3256851 L70.4176226,28.1656951 L73.5134426,28.1656951 Z M74.5109985,30.6686098 L69.4200667,30.6686098 L68.4742119,33 L65,33 L70.3144702,21 L73.6682961,21 L79,33 L75.4568533,33 L74.5109985,30.6686098 Z" id="Fill-31"></path>
            <path d="M91.9730968,26.7342489 C92.3330802,26.4315292 92.5135782,26.0001037 92.5135782,25.4399726 C92.5135782,24.8800905 92.3330802,24.4456777 91.9730968,24.1369832 C91.612607,23.8285376 91.0779481,23.6741904 90.3691199,23.6741904 L88.4517399,23.6741904 L88.4517399,27.1885775 L90.3691199,27.1885775 C91.0779481,27.1885775 91.612607,27.0372176 91.9730968,26.7342489 M93.4548007,21.5399664 C94.2679278,21.899944 94.895747,22.4140199 95.3374988,23.0826919 C95.7789975,23.751613 96,24.5372902 96,25.4399726 C96,26.342904 95.7789975,27.1258428 95.3374988,27.7885401 C94.895747,28.4514864 94.2679278,28.9628239 93.4548007,29.3228015 C92.6411673,29.6827791 91.6824772,29.8627679 90.5784774,29.8627679 L88.4517399,29.8627679 L88.4517399,33 L85,33 L85,21 L90.5784774,21 C91.6824772,21 92.6411673,21.1797399 93.4548007,21.5399664" id="Fill-33"></path>
            <path d="M103.821753,24.137167 C103.469088,23.8287279 102.946033,23.6743839 102.252589,23.6743839 L100.376824,23.6743839 L100.376824,27.188698 L102.252589,27.188698 C102.946033,27.188698 103.469088,27.0370924 103.821753,26.7343789 C104.173924,26.4316654 104.350504,26 104.350504,25.4398805 C104.350504,24.88001 104.173924,24.4456062 103.821753,24.137167 L103.821753,24.137167 Z M102.218412,29.811302 L100.376824,29.811302 L100.376824,33 L97,33 L97,21 L102.457403,21 C103.537441,21 104.475324,21.1799851 105.271299,21.5399552 C106.066778,21.9001743 106.680971,22.4142395 107.113135,23.0828977 C107.545051,23.7515559 107.761257,24.5372168 107.761257,25.4398805 C107.761257,26.3086881 107.559168,27.0659696 107.155732,27.7112273 C106.752049,28.3572318 106.175252,28.862833 105.424847,29.2285288 L108,33 L104.384434,33 L102.218412,29.811302 Z" id="Fill-35"></path>
            <g id="Group-12" transform="translate(108.000000, 17.973742)">
                <path d="M8.51344263,10.3465133 L6.9656575,6.6501318 L5.41762261,10.3465133 L8.51344263,10.3465133 Z M7.61928889,0 L10.8869463,0 L7.65375627,2.50826743 L5.31447023,2.50826743 L7.61928889,0 Z M9.51099852,12.7558112 L4.42006672,12.7558112 L3.47421191,15 L0,15 L5.31447023,3.44883777 L8.66829608,3.44883777 L14,15 L10.4568533,15 L9.51099852,12.7558112 Z" id="Fill-37"></path>
                <path d="M18.2800017,14.2335282 C17.2593196,13.7224671 16.4576092,13.0112904 15.8746163,12.0990405 C15.2913694,11.1867906 15,10.1538968 15,9.00011969 C15,7.84610321 15.2913694,6.81344876 15.8746163,5.90095949 C16.4576092,4.98918833 17.2593196,4.27753286 18.2800017,3.76647184 C19.3004297,3.2556502 20.4519359,3 21.7347742,3 C22.854273,3 23.8630157,3.18718956 24.7610026,3.56037183 C25.6589894,3.93427221 26.4053219,4.4728611 27,5.17589914 L24.7958043,7.05497596 C24.0027308,6.15397658 23.0407291,5.70323752 21.9097991,5.70323752 C21.2450094,5.70323752 20.6531256,5.84063753 20.1341476,6.11543755 C19.6151697,6.39023758 19.2127903,6.77778221 18.9272635,7.27735333 C18.6412286,7.77764258 18.4984653,8.35189803 18.4984653,9.00011969 C18.4984653,9.64858072 18.6412286,10.2225968 18.9272635,10.7226467 C19.2127903,11.2226965 19.6151697,11.6100018 20.1341476,11.8845624 C20.6531256,12.1596018 21.2450094,12.2967625 21.9097991,12.2967625 C23.0407291,12.2967625 24.0027308,11.8462628 24.7958043,10.9452634 L27,12.8241009 C26.4053219,13.5276176 25.6589894,14.0662065 24.7610026,14.4396282 C23.8630157,14.8130498 22.854273,15 21.7347742,15 C20.4519359,15 19.3004297,14.7445892 18.2800017,14.2335282" id="Fill-39"></path>
                <polygon id="Fill-41" points="31.7720546 5.69156087 28 5.69156087 28 3 39 3 39 5.69156087 35.2455242 5.69156087 35.2455242 15 31.7720546 15"></polygon>
                <polygon id="Fill-43" points="41 15 45 15 45 3 41 3"></polygon>
                <path d="M49.2800017,14.2335282 C48.2593196,13.7224671 47.4576092,13.0112904 46.8746163,12.0990405 C46.2913694,11.1867906 46,10.1538968 46,9.00011969 C46,7.84610321 46.2913694,6.81344876 46.8746163,5.90095949 C47.4576092,4.98918833 48.2593196,4.27753286 49.2800017,3.76647184 C50.3004297,3.2556502 51.4519359,3 52.7347742,3 C53.854273,3 54.8630157,3.18718956 55.7610026,3.56037183 C56.6589894,3.93427221 57.4053219,4.4728611 58,5.17589914 L55.7958043,7.05497596 C55.0027308,6.15397658 54.0407291,5.70323752 52.9097991,5.70323752 C52.2450094,5.70323752 51.6531256,5.84063753 51.1341476,6.11543755 C50.6151697,6.39023758 50.2127903,6.77778221 49.9272635,7.27735333 C49.6412286,7.77764258 49.4984653,8.35189803 49.4984653,9.00011969 C49.4984653,9.64858072 49.6412286,10.2225968 49.9272635,10.7226467 C50.2127903,11.2226965 50.6151697,11.6100018 51.1341476,11.8845624 C51.6531256,12.1596018 52.2450094,12.2967625 52.9097991,12.2967625 C54.0407291,12.2967625 55.0027308,11.8462628 55.7958043,10.9452634 L58,12.8241009 C57.4053219,13.5276176 56.6589894,14.0662065 55.7610026,14.4396282 C54.8630157,14.8130498 53.854273,15 52.7347742,15 C51.4519359,15 50.3004297,14.7445892 49.2800017,14.2335282" id="Fill-45"></path>
                <path d="M66.5134426,10.1656951 L64.9656575,6.32568512 L63.4176226,10.1656951 L66.5134426,10.1656951 Z M67.5109985,12.6686098 L62.4200667,12.6686098 L61.4742119,15 L58,15 L63.3144702,3 L66.6682961,3 L72,15 L68.4568533,15 L67.5109985,12.6686098 Z" id="Fill-46"></path>
            </g>
            <path d="M5.36835754,50.2914549 C6.36566234,50.2914549 7.16601633,49.9999378 7.76990225,49.4171525 C8.37378817,48.8341182 8.67573112,48.0285252 8.67573112,46.9998755 C8.67573112,45.9712259 8.37378817,45.1656328 7.76990225,44.5825986 C7.16601633,44.0000622 6.36566234,43.7085451 5.36835754,43.7085451 L3.29096102,43.7085451 L3.29096102,50.2914549 L5.36835754,50.2914549 Z M0,41 L5.5013476,41 C6.77549378,41 7.90578865,41.2457108 8.89199083,41.7371325 C9.87819301,42.2285542 10.6425842,42.9258552 11.185647,43.8285376 C11.7284686,44.731469 12,45.7887476 12,46.9998755 C12,48.2115014 11.7284686,49.26878 11.185647,50.1714624 C10.6425842,51.0743937 9.87819301,51.7714458 8.89199083,52.2628675 C7.90578865,52.7545381 6.77549378,53 5.5013476,53 L0,53 L0,41 Z" id="Fill-47"></path>
            <polygon id="Fill-48" points="14 53 18 53 18 41 14 41"></polygon>
            <path d="M26.5134426,48.1656951 L24.9656575,44.3256851 L23.4176226,48.1656951 L26.5134426,48.1656951 Z M27.5109985,50.6686098 L22.4200667,50.6686098 L21.4742119,53 L18,53 L23.3144702,41 L26.6682961,41 L32,53 L28.4568533,53 L27.5109985,50.6686098 Z" id="Fill-49"></path>
            <path d="M39.8217534,44.137167 C39.4690877,43.8287279 38.946033,43.6743839 38.2525892,43.6743839 L36.3768237,43.6743839 L36.3768237,47.188698 L38.2525892,47.188698 C38.946033,47.188698 39.4690877,47.0370924 39.8217534,46.7343789 C40.1739238,46.4316654 40.3505043,46 40.3505043,45.4398805 C40.3505043,44.88001 40.1739238,44.4456062 39.8217534,44.137167 L39.8217534,44.137167 Z M38.2184123,49.811302 L36.3768237,49.811302 L36.3768237,53 L33,53 L33,41 L38.4574027,41 C39.5374415,41 40.4753242,41.1799851 41.2712986,41.5399552 C42.0667777,41.9001743 42.6809708,42.4142395 43.1131349,43.0828977 C43.5450513,43.7515559 43.7612572,44.5372168 43.7612572,45.4398805 C43.7612572,46.3086881 43.5591679,47.0659696 43.1557322,47.7112273 C42.7520488,48.3572318 42.1752522,48.862833 41.4248469,49.2285288 L44,53 L40.3844335,53 L38.2184123,49.811302 Z" id="Fill-50"></path>
            <polygon id="Fill-51" points="46 53 50 53 50 41 46 41"></polygon>
            <path d="M58.5134426,48.1656951 L56.9656575,44.3256851 L55.4176226,48.1656951 L58.5134426,48.1656951 Z M59.5109985,50.6686098 L54.4200667,50.6686098 L53.4742119,53 L50,53 L55.3144702,41 L58.6682961,41 L64,53 L60.4568533,53 L59.5109985,50.6686098 Z" id="Fill-52"></path>
        </g>
    </g>
</svg>