<svg width="995px" height="868px" viewBox="0 0 995 868" version="1.1" xmlns="http://www.w3.org/2000/svg" xmlns:xlink="http://www.w3.org/1999/xlink">
	<g id="Desktop" stroke="none" stroke-width="1" fill="none" fill-rule="evenodd">
		<path d="M510.406602,0.666666667 C199.24961,0.666666667 0.460328486,194.15991 0.460328486,397.416885 C0.460328486,539.084756 81.016853,668.677283 269.301285,672.081657 L269.302184,867.657847 L269.302184,867.657847 L269.357935,867.238804 L269.357935,867.238804 L269.429758,866.79785 L269.429758,866.79785 L269.498632,866.419768 L269.498632,866.419768 L269.586701,865.975212 L269.586701,865.975212 L269.696021,865.464882 L269.696021,865.464882 L269.82865,864.889477 L269.82865,864.889477 L269.986647,864.249697 C270.015208,864.137741 270.044912,864.023132 270.075802,863.905885 L270.275707,863.170854 C270.31151,863.04311 270.348585,862.912757 270.386973,862.77981 L270.633418,861.951102 C273.875853,851.349207 284.784169,826.69753 320.729262,793.901995 C360.640725,757.492457 407.087342,739.052613 468.921679,716.424588 L476.731756,713.572668 L476.731756,713.572668 L492.848145,707.69948 L492.848145,707.69948 L501.162142,704.658978 C562.770834,682.072694 638.549256,652.864046 735.316136,599.965828 C927.450412,494.937816 994.261641,385.225152 994.261641,274.367998 C994.261641,163.510844 862.622142,0.666666667 510.406602,0.666666667 Z" id="Fill-1-Copy-3" fill="#F9F9FA"></path>
	</g>
</svg>